<svg width="544" height="665" viewBox="0 0 544 665" fill="none" xmlns="http://www.w3.org/2000/svg">
<rect width="545" height="665" rx="6" fill="#54BD95"/>
<rect x="25" y="128.586" width="493.209" height="490.415" rx="10" fill="#87E1BF"/>
<rect x="50" y="154" width="444" height="438" rx="6" fill="#F5FAFA"/>
<rect x="16" y="225" width="511" height="148" rx="10" fill="white"/>
<g filter="url(#filter0_d_1_58638)">
<rect x="41.1484" y="250.146" width="97.8035" height="97.8035" rx="10" fill="#0F8CE9"/>
</g>
<path d="M90.0508 280.885C98.539 280.885 105.421 287.274 105.421 295.156C105.421 296.507 105.218 297.814 104.841 299.052C109.802 299.115 113.805 303.155 113.805 308.131C113.805 313.146 109.738 317.213 104.723 317.213H75.3809C70.3652 317.213 66.299 313.147 66.2988 308.131C66.2988 303.155 70.3003 299.116 75.2607 299.052C74.8833 297.814 74.6816 296.507 74.6816 295.156C74.6817 287.274 81.5627 280.885 90.0508 280.885Z" fill="#DBE5FA"/>
<rect x="169" y="329.449" width="299" height="13.9719" rx="6.98596" fill="#87E1BF"/>
<rect x="169" y="329.449" width="144.779" height="13.9719" rx="6.98596" fill="#54BD95"/>
<rect x="169" y="298.711" width="163.663" height="8.38316" rx="4.19158" fill="#87E1BF"/>
<rect x="169" y="254" width="299" height="22.3551" rx="11.1775" fill="#87E1BF"/>
<rect x="16.5" y="408.5" width="510" height="147.102" rx="9.5" fill="white" stroke="#EFF2F7"/>
<rect x="169" y="512.449" width="332.793" height="13.9719" rx="6.98596" fill="#87E1BF"/>
<rect x="169" y="512.449" width="238.21" height="13.9719" rx="6.98596" fill="#54BD95"/>
<rect x="169" y="481.711" width="182.16" height="8.38316" rx="4.19158" fill="#87E1BF"/>
<rect x="169" y="437" width="332.793" height="22.3551" rx="11.1775" fill="#87E1BF"/>
<g filter="url(#filter1_d_1_58638)">
<rect x="41" y="433" width="102.787" height="97.8035" rx="10" fill="white"/>
</g>
<g clip-path="url(#clip0_1_58638)">
<path d="M101.619 477.027H82.5048C81.4203 477.027 80.541 477.923 80.541 479.027C80.541 480.131 81.4203 481.026 82.5048 481.026V482.359C82.5048 483.464 83.384 484.359 84.4686 484.359C85.5531 484.359 86.4324 483.464 86.4324 482.359V481.026H97.6915V482.359C97.6915 483.464 98.5707 484.359 99.6552 484.359C100.74 484.359 101.619 483.464 101.619 482.359V481.026C102.704 481.026 103.583 480.131 103.583 479.027C103.583 477.923 102.704 477.027 101.619 477.027Z" fill="#54BD95"/>
<path d="M92.0623 467.695C89.8932 467.695 88.1348 469.486 88.1348 471.694H95.99C95.9899 469.486 94.2315 467.695 92.0623 467.695Z" fill="#54BD95"/>
<path d="M92.0625 453.854C76.8747 453.854 64.5625 466.39 64.5625 481.854C64.5625 497.318 76.8747 509.854 92.0625 509.854C107.25 509.854 119.562 497.318 119.562 481.854C119.562 466.39 107.25 453.854 92.0625 453.854ZM108.82 493.823C108.82 496.032 107.062 497.822 104.893 497.822H79.2322C77.0632 497.822 75.3047 496.032 75.3047 493.823V475.694C75.3047 473.486 77.0632 471.695 79.2322 471.695H84.2072C84.2073 467.278 87.7242 463.697 92.0625 463.697C96.4008 463.697 99.9177 467.278 99.9177 471.695H104.893C107.062 471.695 108.82 473.486 108.82 475.694V493.823H108.82Z" fill="#54BD95"/>
</g>
<mask id="path-20-inside-1_1_58638" fill="white">
<path d="M404.467 153.733C404.467 136.303 401.033 119.042 394.363 102.938C387.692 86.8345 377.915 72.2021 365.59 59.8767C353.264 47.5513 338.632 37.7742 322.528 31.1037C306.424 24.4332 289.164 21 271.733 21C254.303 21 237.042 24.4332 220.938 31.1037C204.835 37.7742 190.202 47.5513 177.877 59.8767C165.551 72.2021 155.774 86.8345 149.104 102.938C142.433 119.042 139 136.303 139 153.733L186.523 153.733C186.523 142.543 188.727 131.463 193.009 121.125C197.291 110.786 203.568 101.393 211.48 93.4804C219.393 85.5679 228.786 79.2913 239.125 75.0091C249.463 70.7269 260.543 68.5228 271.733 68.5228C282.923 68.5228 294.004 70.7269 304.342 75.0091C314.68 79.2913 324.074 85.5679 331.986 93.4804C339.899 101.393 346.175 110.786 350.458 121.125C354.74 131.463 356.944 142.543 356.944 153.733H404.467Z"/>
</mask>
<path d="M404.467 153.733C404.467 136.303 401.033 119.042 394.363 102.938C387.692 86.8345 377.915 72.2021 365.59 59.8767C353.264 47.5513 338.632 37.7742 322.528 31.1037C306.424 24.4332 289.164 21 271.733 21C254.303 21 237.042 24.4332 220.938 31.1037C204.835 37.7742 190.202 47.5513 177.877 59.8767C165.551 72.2021 155.774 86.8345 149.104 102.938C142.433 119.042 139 136.303 139 153.733L186.523 153.733C186.523 142.543 188.727 131.463 193.009 121.125C197.291 110.786 203.568 101.393 211.48 93.4804C219.393 85.5679 228.786 79.2913 239.125 75.0091C249.463 70.7269 260.543 68.5228 271.733 68.5228C282.923 68.5228 294.004 70.7269 304.342 75.0091C314.68 79.2913 324.074 85.5679 331.986 93.4804C339.899 101.393 346.175 110.786 350.458 121.125C354.74 131.463 356.944 142.543 356.944 153.733H404.467Z" stroke="#52459F" stroke-width="68" mask="url(#path-20-inside-1_1_58638)"/>
<mask id="path-21-inside-2_1_58638" fill="white">
<path d="M404.467 153.733C404.467 118.53 390.482 84.769 365.59 59.8767C340.698 34.9844 306.936 21 271.733 21C236.53 21 202.769 34.9844 177.877 59.8767C152.984 84.769 139 118.53 139 153.733H186.546C186.546 131.14 195.521 109.473 211.497 93.4971C227.473 77.5215 249.14 68.5464 271.733 68.5464C294.326 68.5464 315.994 77.5215 331.97 93.4971C347.945 109.473 356.92 131.14 356.92 153.733H404.467Z"/>
</mask>
<path d="M404.467 153.733C404.467 118.53 390.482 84.769 365.59 59.8767C340.698 34.9844 306.936 21 271.733 21C236.53 21 202.769 34.9844 177.877 59.8767C152.984 84.769 139 118.53 139 153.733H186.546C186.546 131.14 195.521 109.473 211.497 93.4971C227.473 77.5215 249.14 68.5464 271.733 68.5464C294.326 68.5464 315.994 77.5215 331.97 93.4971C347.945 109.473 356.92 131.14 356.92 153.733H404.467Z" stroke="#0F8CE9" stroke-width="68" mask="url(#path-21-inside-2_1_58638)"/>
<mask id="path-22-inside-3_1_58638" fill="white">
<path d="M404.467 153.733C404.467 126.336 395.988 99.6093 380.196 77.2215C364.403 54.8337 342.069 37.8814 316.259 28.6909L300.309 73.4824C316.874 79.3808 331.208 90.2606 341.343 104.629C351.479 118.997 356.92 136.15 356.92 153.733H404.467Z"/>
</mask>
<path d="M404.467 153.733C404.467 126.336 395.988 99.6093 380.196 77.2215C364.403 54.8337 342.069 37.8814 316.259 28.6909L300.309 73.4824C316.874 79.3808 331.208 90.2606 341.343 104.629C351.479 118.997 356.92 136.15 356.92 153.733H404.467Z" stroke="#54BD95" stroke-width="68" mask="url(#path-22-inside-3_1_58638)"/>
<mask id="path-23-inside-4_1_58638" fill="white">
<path d="M404.467 153.733C404.467 127.531 396.712 101.915 382.178 80.1126C367.645 58.3102 346.984 41.2969 322.799 31.2163L304.507 75.1031C320.029 81.5728 333.289 92.4918 342.616 106.484C351.943 120.477 356.92 136.917 356.92 153.733H404.467Z"/>
</mask>
<path d="M404.467 153.733C404.467 127.531 396.712 101.915 382.178 80.1126C367.645 58.3102 346.984 41.2969 322.799 31.2163L304.507 75.1031C320.029 81.5728 333.289 92.4918 342.616 106.484C351.943 120.477 356.92 136.917 356.92 153.733H404.467Z" stroke="#FEE900" stroke-width="68" mask="url(#path-23-inside-4_1_58638)"/>
<path d="M149.124 181.846C148.67 181.84 148.222 181.757 147.782 181.598C147.344 181.439 146.946 181.173 146.588 180.802C146.23 180.431 145.944 179.932 145.728 179.306C145.516 178.679 145.41 177.897 145.41 176.959C145.41 176.071 145.498 175.282 145.674 174.593C145.853 173.903 146.109 173.322 146.444 172.848C146.779 172.37 147.183 172.007 147.657 171.759C148.131 171.51 148.663 171.386 149.253 171.386C149.86 171.386 150.398 171.505 150.869 171.744C151.34 171.983 151.721 172.312 152.012 172.733C152.307 173.154 152.495 173.633 152.574 174.17H151.058C150.955 173.746 150.751 173.4 150.446 173.131C150.141 172.863 149.744 172.728 149.253 172.728C148.507 172.728 147.926 173.053 147.508 173.703C147.094 174.352 146.885 175.256 146.882 176.412H146.956C147.132 176.124 147.347 175.879 147.603 175.676C147.861 175.471 148.15 175.314 148.468 175.204C148.789 175.092 149.127 175.035 149.482 175.035C150.072 175.035 150.605 175.179 151.083 175.468C151.563 175.753 151.946 176.147 152.231 176.651C152.516 177.155 152.659 177.731 152.659 178.381C152.659 179.031 152.511 179.619 152.216 180.146C151.925 180.673 151.514 181.091 150.983 181.399C150.453 181.704 149.833 181.853 149.124 181.846ZM149.119 180.554C149.51 180.554 149.86 180.458 150.168 180.265C150.476 180.073 150.72 179.815 150.899 179.49C151.078 179.165 151.167 178.802 151.167 178.401C151.167 178.01 151.079 177.654 150.904 177.332C150.731 177.011 150.493 176.755 150.188 176.566C149.886 176.377 149.542 176.283 149.154 176.283C148.859 176.283 148.585 176.339 148.333 176.452C148.085 176.565 147.866 176.721 147.677 176.919C147.488 177.118 147.339 177.347 147.23 177.605C147.124 177.861 147.071 178.131 147.071 178.416C147.071 178.797 147.158 179.15 147.334 179.475C147.513 179.8 147.757 180.061 148.065 180.26C148.377 180.456 148.728 180.554 149.119 180.554ZM158.014 181.876C157.229 181.873 156.558 181.666 156.001 181.255C155.444 180.844 155.018 180.245 154.723 179.46C154.428 178.674 154.281 177.728 154.281 176.621C154.281 175.517 154.428 174.574 154.723 173.792C155.021 173.01 155.449 172.413 156.006 172.002C156.566 171.592 157.235 171.386 158.014 171.386C158.793 171.386 159.461 171.593 160.018 172.007C160.575 172.418 161.001 173.015 161.296 173.797C161.594 174.576 161.743 175.517 161.743 176.621C161.743 177.731 161.596 178.679 161.301 179.465C161.006 180.247 160.58 180.845 160.023 181.26C159.466 181.671 158.797 181.876 158.014 181.876ZM158.014 180.549C158.704 180.549 159.242 180.212 159.63 179.539C160.021 178.867 160.217 177.894 160.217 176.621C160.217 175.776 160.127 175.062 159.948 174.478C159.773 173.892 159.519 173.448 159.188 173.146C158.86 172.841 158.468 172.689 158.014 172.689C157.328 172.689 156.79 173.027 156.399 173.703C156.008 174.379 155.81 175.352 155.807 176.621C155.807 177.47 155.895 178.187 156.07 178.774C156.249 179.357 156.503 179.8 156.831 180.101C157.159 180.4 157.554 180.549 158.014 180.549ZM168.821 179.798V179.261C168.821 178.877 168.901 178.525 169.06 178.207C169.222 177.886 169.458 177.629 169.766 177.436C170.078 177.241 170.454 177.143 170.895 177.143C171.345 177.143 171.723 177.239 172.028 177.431C172.333 177.624 172.563 177.881 172.719 178.202C172.878 178.524 172.958 178.877 172.958 179.261V179.798C172.958 180.182 172.878 180.535 172.719 180.857C172.56 181.175 172.326 181.432 172.018 181.627C171.713 181.82 171.339 181.916 170.895 181.916C170.447 181.916 170.069 181.82 169.761 181.627C169.453 181.432 169.219 181.175 169.06 180.857C168.901 180.535 168.821 180.182 168.821 179.798ZM169.98 179.261V179.798C169.98 180.083 170.048 180.342 170.184 180.574C170.319 180.806 170.556 180.922 170.895 180.922C171.229 180.922 171.463 180.806 171.596 180.574C171.728 180.342 171.794 180.083 171.794 179.798V179.261C171.794 178.976 171.73 178.717 171.6 178.485C171.475 178.253 171.239 178.137 170.895 178.137C170.563 178.137 170.328 178.253 170.189 178.485C170.049 178.717 169.98 178.976 169.98 179.261ZM163.701 173.971V173.434C163.701 173.05 163.78 172.697 163.939 172.375C164.102 172.054 164.337 171.797 164.645 171.605C164.957 171.413 165.333 171.316 165.774 171.316C166.225 171.316 166.602 171.413 166.907 171.605C167.212 171.797 167.443 172.054 167.598 172.375C167.754 172.697 167.832 173.05 167.832 173.434V173.971C167.832 174.356 167.752 174.709 167.593 175.03C167.438 175.348 167.206 175.605 166.897 175.801C166.592 175.993 166.218 176.089 165.774 176.089C165.323 176.089 164.944 175.993 164.635 175.801C164.33 175.605 164.098 175.348 163.939 175.03C163.78 174.709 163.701 174.356 163.701 173.971ZM164.864 173.434V173.971C164.864 174.256 164.93 174.515 165.063 174.747C165.199 174.979 165.436 175.095 165.774 175.095C166.105 175.095 166.337 174.979 166.47 174.747C166.606 174.515 166.674 174.256 166.674 173.971V173.434C166.674 173.149 166.609 172.891 166.48 172.659C166.35 172.427 166.115 172.311 165.774 172.311C165.442 172.311 165.207 172.427 165.068 172.659C164.932 172.891 164.864 173.149 164.864 173.434ZM164.173 181.707L171.173 171.525H172.361L165.361 181.707H164.173Z" fill="black"/>
<path d="M363.318 179.718V178.475L367.718 171.525H368.698V173.355H368.076L364.929 178.336V178.416H370.96V179.718H363.318ZM368.146 181.707V179.341L368.156 178.774V171.525H369.612V181.707H368.146ZM376.237 181.876C375.452 181.873 374.78 181.666 374.224 181.255C373.667 180.844 373.241 180.245 372.946 179.46C372.651 178.674 372.503 177.728 372.503 176.621C372.503 175.517 372.651 174.574 372.946 173.792C373.244 173.01 373.672 172.413 374.229 172.002C374.789 171.592 375.458 171.386 376.237 171.386C377.016 171.386 377.684 171.593 378.241 172.007C378.797 172.418 379.223 173.015 379.518 173.797C379.817 174.576 379.966 175.517 379.966 176.621C379.966 177.731 379.818 178.679 379.523 179.465C379.228 180.247 378.802 180.845 378.246 181.26C377.689 181.671 377.019 181.876 376.237 181.876ZM376.237 180.549C376.926 180.549 377.465 180.212 377.853 179.539C378.244 178.867 378.439 177.894 378.439 176.621C378.439 175.776 378.35 175.062 378.171 174.478C377.995 173.892 377.742 173.448 377.41 173.146C377.082 172.841 376.691 172.689 376.237 172.689C375.551 172.689 375.012 173.027 374.621 173.703C374.23 174.379 374.033 175.352 374.03 176.621C374.03 177.47 374.117 178.187 374.293 178.774C374.472 179.357 374.726 179.8 375.054 180.101C375.382 180.4 375.776 180.549 376.237 180.549ZM387.044 179.798V179.261C387.044 178.877 387.124 178.525 387.283 178.207C387.445 177.886 387.68 177.629 387.989 177.436C388.3 177.241 388.676 177.143 389.117 177.143C389.568 177.143 389.946 177.239 390.251 177.431C390.556 177.624 390.786 177.881 390.942 178.202C391.101 178.524 391.18 178.877 391.18 179.261V179.798C391.18 180.182 391.101 180.535 390.942 180.857C390.783 181.175 390.549 181.432 390.241 181.627C389.936 181.82 389.561 181.916 389.117 181.916C388.67 181.916 388.292 181.82 387.984 181.627C387.675 181.432 387.442 181.175 387.283 180.857C387.124 180.535 387.044 180.182 387.044 179.798ZM388.202 179.261V179.798C388.202 180.083 388.27 180.342 388.406 180.574C388.542 180.806 388.779 180.922 389.117 180.922C389.452 180.922 389.686 180.806 389.818 180.574C389.951 180.342 390.017 180.083 390.017 179.798V179.261C390.017 178.976 389.952 178.717 389.823 178.485C389.697 178.253 389.462 178.137 389.117 178.137C388.786 178.137 388.55 178.253 388.411 178.485C388.272 178.717 388.202 178.976 388.202 179.261ZM381.923 173.971V173.434C381.923 173.05 382.003 172.697 382.162 172.375C382.324 172.054 382.56 171.797 382.868 171.605C383.179 171.413 383.556 171.316 383.996 171.316C384.447 171.316 384.825 171.413 385.13 171.605C385.435 171.797 385.665 172.054 385.821 172.375C385.977 172.697 386.055 173.05 386.055 173.434V173.971C386.055 174.356 385.975 174.709 385.816 175.03C385.66 175.348 385.428 175.605 385.12 175.801C384.815 175.993 384.441 176.089 383.996 176.089C383.546 176.089 383.166 175.993 382.858 175.801C382.553 175.605 382.321 175.348 382.162 175.03C382.003 174.709 381.923 174.356 381.923 173.971ZM383.087 173.434V173.971C383.087 174.256 383.153 174.515 383.286 174.747C383.421 174.979 383.658 175.095 383.996 175.095C384.328 175.095 384.56 174.979 384.692 174.747C384.828 174.515 384.896 174.256 384.896 173.971V173.434C384.896 173.149 384.832 172.891 384.702 172.659C384.573 172.427 384.338 172.311 383.996 172.311C383.665 172.311 383.43 172.427 383.29 172.659C383.155 172.891 383.087 173.149 383.087 173.434ZM382.396 181.707L389.396 171.525H390.584L383.584 181.707H382.396Z" fill="black"/>
<circle cx="271.737" cy="153.731" r="54.4905" fill="#FEFEFD"/>
<circle cx="271.736" cy="153.73" r="41.9158" fill="#E6F9FD"/>
<defs>
<filter id="filter0_d_1_58638" x="32.1484" y="245.146" width="115.803" height="115.803" filterUnits="userSpaceOnUse" color-interpolation-filters="sRGB">
<feFlood flood-opacity="0" result="BackgroundImageFix"/>
<feColorMatrix in="SourceAlpha" type="matrix" values="0 0 0 0 0 0 0 0 0 0 0 0 0 0 0 0 0 0 127 0" result="hardAlpha"/>
<feOffset dy="4"/>
<feGaussianBlur stdDeviation="4.5"/>
<feComposite in2="hardAlpha" operator="out"/>
<feColorMatrix type="matrix" values="0 0 0 0 0 0 0 0 0 0 0 0 0 0 0 0 0 0 0.05 0"/>
<feBlend mode="normal" in2="BackgroundImageFix" result="effect1_dropShadow_1_58638"/>
<feBlend mode="normal" in="SourceGraphic" in2="effect1_dropShadow_1_58638" result="shape"/>
</filter>
<filter id="filter1_d_1_58638" x="32" y="428" width="120.787" height="115.803" filterUnits="userSpaceOnUse" color-interpolation-filters="sRGB">
<feFlood flood-opacity="0" result="BackgroundImageFix"/>
<feColorMatrix in="SourceAlpha" type="matrix" values="0 0 0 0 0 0 0 0 0 0 0 0 0 0 0 0 0 0 127 0" result="hardAlpha"/>
<feOffset dy="4"/>
<feGaussianBlur stdDeviation="4.5"/>
<feComposite in2="hardAlpha" operator="out"/>
<feColorMatrix type="matrix" values="0 0 0 0 0 0 0 0 0 0 0 0 0 0 0 0 0 0 0.05 0"/>
<feBlend mode="normal" in2="BackgroundImageFix" result="effect1_dropShadow_1_58638"/>
<feBlend mode="normal" in="SourceGraphic" in2="effect1_dropShadow_1_58638" result="shape"/>
</filter>
<clipPath id="clip0_1_58638">
<rect width="55" height="56" fill="white" transform="translate(64.5625 453.854)"/>
</clipPath>
</defs>
</svg>
