<svg width="544" height="262" viewBox="0 0 544 262" fill="none" xmlns="http://www.w3.org/2000/svg">
<path d="M231.5 107.361C231.497 101.219 230.059 95.1527 227.287 89.5861C224.516 84.0196 220.477 79.0877 215.455 75.136C210.432 71.1844 204.548 68.3085 198.213 66.71C191.878 65.1114 185.247 64.8289 178.783 65.8821C172.319 66.9353 166.18 69.2989 160.794 72.8071C155.409 76.3153 150.909 80.8834 147.608 86.1912C144.308 91.499 142.287 97.4182 141.688 103.534C141.089 109.65 141.926 115.814 144.139 121.596H228.852C230.607 117.03 231.503 112.213 231.5 107.361Z" fill="#54BD95"/>
<path d="M300.048 39.906C294.385 39.9046 288.772 40.8909 283.5 42.8136V121.505C289.722 123.77 296.404 124.731 303.071 124.32C309.738 123.908 316.226 122.135 322.071 119.125C327.917 116.116 332.976 111.944 336.89 106.908C340.804 101.872 343.475 96.0953 344.713 89.9895C345.951 83.8836 345.726 77.599 344.054 71.5833C342.381 65.5676 339.303 59.9689 335.037 55.1862C330.772 50.4035 325.425 46.5544 319.377 43.9133C313.329 41.2721 306.729 39.9038 300.048 39.906Z" fill="#DBE5FA"/>
<path d="M250.466 164.787C243.608 164.791 236.834 166.204 230.62 168.928C224.405 171.651 218.901 175.619 214.493 180.553C210.085 185.487 206.88 191.267 205.104 197.487C203.327 203.708 203.022 210.219 204.21 216.562C205.398 222.905 208.05 228.927 211.979 234.205C215.909 239.483 221.021 243.89 226.957 247.115C232.893 250.341 239.509 252.307 246.34 252.877C253.171 253.446 260.052 252.604 266.5 250.41V167.426C261.36 165.678 255.934 164.785 250.466 164.787Z" fill="#0F8CE9"/>
<path d="M350.5 236.148C372.591 236.148 390.5 219.333 390.5 198.59C390.5 177.847 372.591 161.031 350.5 161.031C328.409 161.031 310.5 177.847 310.5 198.59C310.5 219.333 328.409 236.148 350.5 236.148Z" fill="#FEE900"/>
<path d="M276 6.11523V134.729H3V6.11523H276Z" stroke="#54BD95" stroke-width="15" stroke-miterlimit="10"/>
<path d="M541 6.11523V134.729H276V6.11523H541Z" stroke="#54BD95" stroke-width="15" stroke-miterlimit="10"/>
<path d="M274 126.303V254.917H8V126.303H274Z" stroke="#54BD95" stroke-width="15" stroke-miterlimit="10"/>
<path d="M536 126.303V254.917H276V126.303H536Z" stroke="#54BD95" stroke-width="15" stroke-miterlimit="10"/>
</svg>
