<svg width="594" height="320" viewBox="0 0 594 320" fill="none" xmlns="http://www.w3.org/2000/svg">
<g filter="url(#filter0_d_1_58752)">
<rect x="25" y="25" width="543.5" height="269.5" rx="6" fill="#F9F8FE"/>
<rect x="135" y="65.3047" width="301" height="14.8043" rx="7.40217" fill="#87E1BF"/>
<rect x="135" y="89.9785" width="274.102" height="14.8043" rx="7.40217" fill="#87E1BF"/>
<rect x="135" y="114.652" width="243.362" height="14.8043" rx="7.40217" fill="#87E1BF"/>
<rect x="135" y="139.326" width="215.183" height="14.8043" rx="7.40217" fill="#87E1BF"/>
<rect x="135" y="183.5" width="301" height="15" rx="7.5" fill="#87E1BF"/>
<rect x="135" y="208.5" width="274" height="15" rx="7.5" fill="#87E1BF"/>
<rect x="135" y="233.5" width="244" height="14" rx="7" fill="#87E1BF"/>
<rect x="135" y="257.5" width="215" height="15" rx="7.5" fill="#87E1BF"/>
<rect x="50" y="65.3047" width="63" height="88.8261" rx="2" fill="#54BD95"/>
<rect x="50" y="188.674" width="63" height="88.8261" rx="2" fill="#0F8CE9"/>
<circle cx="498" cy="80.5" r="30" fill="#DBE5FA"/>
<circle cx="498" cy="164.5" r="30" fill="#0F8CE9"/>
<circle cx="498" cy="248.5" r="30" fill="#54BD95"/>
<circle cx="513.75" cy="248.812" r="3.25" fill="white"/>
<circle cx="501.562" cy="248.812" r="4.875" fill="white"/>
<circle cx="485.312" cy="248.812" r="7.3125" fill="white"/>
</g>
<defs>
<filter id="filter0_d_1_58752" x="0" y="0" width="593.5" height="319.5" filterUnits="userSpaceOnUse" color-interpolation-filters="sRGB">
<feFlood flood-opacity="0" result="BackgroundImageFix"/>
<feColorMatrix in="SourceAlpha" type="matrix" values="0 0 0 0 0 0 0 0 0 0 0 0 0 0 0 0 0 0 127 0" result="hardAlpha"/>
<feOffset/>
<feGaussianBlur stdDeviation="12.5"/>
<feComposite in2="hardAlpha" operator="out"/>
<feColorMatrix type="matrix" values="0 0 0 0 0.184233 0 0 0 0 0.223383 0 0 0 0 0.404167 0 0 0 0.15 0"/>
<feBlend mode="normal" in2="BackgroundImageFix" result="effect1_dropShadow_1_58752"/>
<feBlend mode="normal" in="SourceGraphic" in2="effect1_dropShadow_1_58752" result="shape"/>
</filter>
</defs>
</svg>
