<svg width="594" height="715" viewBox="0 0 594 715" fill="none" xmlns="http://www.w3.org/2000/svg">
<g filter="url(#filter0_d_1_58779)">
<rect x="25" y="25" width="543.5" height="665" rx="6" fill="#54BD95"/>
<path d="M79.5 358V59" stroke="#87E1BF" stroke-width="7" stroke-miterlimit="10"/>
<path d="M97.5 358V59" stroke="#87E1BF" stroke-width="7" stroke-miterlimit="10"/>
<path d="M115.5 358V59" stroke="#87E1BF" stroke-width="7" stroke-miterlimit="10"/>
<path d="M133.5 358V59" stroke="#87E1BF" stroke-width="7" stroke-miterlimit="10"/>
<path d="M151.5 358V59" stroke="#87E1BF" stroke-width="7" stroke-miterlimit="10"/>
<path d="M170.5 358V59" stroke="#87E1BF" stroke-width="7" stroke-miterlimit="10"/>
<path d="M186.5 358V59" stroke="#87E1BF" stroke-width="7" stroke-miterlimit="10"/>
<path d="M205.5 358V59" stroke="#87E1BF" stroke-width="7" stroke-miterlimit="10"/>
<path d="M223.5 358V59" stroke="#87E1BF" stroke-width="7" stroke-miterlimit="10"/>
<path d="M241.5 358V59" stroke="#87E1BF" stroke-width="7" stroke-miterlimit="10"/>
<path d="M259.5 358V59" stroke="#87E1BF" stroke-width="7" stroke-miterlimit="10"/>
<path d="M277.5 358V59" stroke="#87E1BF" stroke-width="7" stroke-miterlimit="10"/>
<path d="M536 57.5V657.5H58V57.5H536Z" stroke="#87E1BF" stroke-width="15" stroke-miterlimit="10"/>
<path d="M543.5 358L57.5 358" stroke="#87E1BF" stroke-width="15" stroke-miterlimit="10"/>
<path d="M297.5 657L297.5 59" stroke="#87E1BF" stroke-width="15" stroke-miterlimit="10"/>
<path d="M263.5 595H87.5V531.869L175.506 426L263.5 531.869V595Z" fill="#FEE900"/>
<path d="M497.5 522.762L455.603 523.455L491.867 544.436L451.333 533.802L480.576 563.78L444.42 542.619L464.489 579.36L435.39 549.239L444.791 590.042L424.913 553.193L422.939 595L413.742 554.161L400.562 593.901L402.738 552.094L379.308 586.804L392.692 547.136L360.758 574.234L384.355 539.644L346.286 557.136L378.351 530.193L336.968 536.777L375.134 519.476L333.5 514.661L374.919 508.28L336.131 492.425L377.741 497.444L344.671 471.731L383.375 487.777L358.485 454.096L391.424 479.987L376.545 440.845L401.267 474.647L397.524 432.948L412.199 472.161L419.842 431L423.394 472.711L441.873 435.146L434.015 476.26L461.954 445.063L443.296 482.544L478.627 460.034L450.52 491.099L490.623 478.948L455.184 501.279L497.081 500.383L456.919 512.331L497.5 522.762Z" stroke="#DBE5FA" stroke-width="6" stroke-miterlimit="10"/>
<path d="M373.5 285C392.278 285 407.5 270.002 407.5 251.5C407.5 232.998 392.278 218 373.5 218C354.722 218 339.5 232.998 339.5 251.5C339.5 270.002 354.722 285 373.5 285Z" fill="#FEE900"/>
<path d="M458 285C476.502 285 491.5 270.002 491.5 251.5C491.5 232.998 476.502 218 458 218C439.498 218 424.5 232.998 424.5 251.5C424.5 270.002 439.498 285 458 285Z" fill="#54BD95"/>
<path d="M373.5 196C392.278 196 407.5 181.002 407.5 162.5C407.5 143.998 392.278 129 373.5 129C354.722 129 339.5 143.998 339.5 162.5C339.5 181.002 354.722 196 373.5 196Z" fill="#FEE900"/>
<path d="M458 196C476.502 196 491.5 181.002 491.5 162.5C491.5 143.998 476.502 129 458 129C439.498 129 424.5 143.998 424.5 162.5C424.5 181.002 439.498 196 458 196Z" fill="#FEE900"/>
</g>
<defs>
<filter id="filter0_d_1_58779" x="0" y="0" width="593.5" height="715" filterUnits="userSpaceOnUse" color-interpolation-filters="sRGB">
<feFlood flood-opacity="0" result="BackgroundImageFix"/>
<feColorMatrix in="SourceAlpha" type="matrix" values="0 0 0 0 0 0 0 0 0 0 0 0 0 0 0 0 0 0 127 0" result="hardAlpha"/>
<feOffset/>
<feGaussianBlur stdDeviation="12.5"/>
<feComposite in2="hardAlpha" operator="out"/>
<feColorMatrix type="matrix" values="0 0 0 0 0.184233 0 0 0 0 0.223383 0 0 0 0 0.404167 0 0 0 0.15 0"/>
<feBlend mode="normal" in2="BackgroundImageFix" result="effect1_dropShadow_1_58779"/>
<feBlend mode="normal" in="SourceGraphic" in2="effect1_dropShadow_1_58779" result="shape"/>
</filter>
</defs>
</svg>
