<svg width="594" height="312" viewBox="0 0 594 312" fill="none" xmlns="http://www.w3.org/2000/svg">
<g filter="url(#filter0_d_1_58742)">
<g clip-path="url(#clip0_1_58742)">
<rect x="25" y="25" width="543.5" height="261.5" rx="6" fill="#F9F8FE"/>
<path fill-rule="evenodd" clip-rule="evenodd" d="M296.494 108.213C271.494 108.212 246.738 112.835 223.641 121.817C200.543 130.8 179.557 143.967 161.879 160.566C144.201 177.165 130.178 196.871 120.612 218.559C111.045 240.247 106.122 263.493 106.124 286.967L75.5 286.969C75.4984 259.718 81.2136 232.734 92.319 207.557C103.425 182.38 119.703 159.503 140.224 140.234C160.746 120.965 185.109 105.68 211.922 95.2518C238.735 84.8239 267.473 79.4575 296.495 79.459L296.494 93.8361L296.495 79.459C418.552 79.459 517.5 172.358 517.5 286.968H486.876C486.876 188.24 401.639 108.213 296.494 108.213H296.494Z" fill="#54BD95"/>
<path fill-rule="evenodd" clip-rule="evenodd" d="M296.5 151.396C258.464 151.396 221.976 165.668 195.066 191.088C168.154 216.51 153.026 250.999 153.026 286.97H122.5C122.5 243.405 140.82 201.615 173.446 170.796C206.074 139.976 250.337 122.652 296.5 122.652C342.663 122.652 386.926 139.976 419.554 170.796C452.18 201.615 470.5 243.405 470.5 286.97H439.974C439.974 250.999 424.846 216.51 397.934 191.088C371.024 165.668 334.536 151.396 296.5 151.396Z" fill="#FEE900"/>
<path fill-rule="evenodd" clip-rule="evenodd" d="M296.5 193.625C270.134 193.625 244.849 203.46 226.205 220.965C207.562 238.47 197.088 262.213 197.088 286.969H166.5C166.5 254.595 180.196 223.548 204.576 200.656C228.956 177.765 262.022 164.904 296.5 164.904C330.978 164.904 364.044 177.765 388.424 200.656C412.804 223.548 426.5 254.595 426.5 286.969H395.912C395.912 262.213 385.438 238.47 366.795 220.965C348.151 203.46 322.866 193.625 296.5 193.625Z" fill="#0F8CE9"/>
<path d="M87.5 131.995L75 112L129 121.266L85 153.452L87.5 131.995Z" fill="#54BD95" stroke="white" stroke-width="2"/>
<path d="M494.265 104.081L477.342 120.502L475.06 65.7603L515.769 102.019L494.265 104.081Z" fill="#54BD95" stroke="white" stroke-width="2"/>
</g>
</g>
<defs>
<filter id="filter0_d_1_58742" x="0" y="0" width="593.5" height="311.5" filterUnits="userSpaceOnUse" color-interpolation-filters="sRGB">
<feFlood flood-opacity="0" result="BackgroundImageFix"/>
<feColorMatrix in="SourceAlpha" type="matrix" values="0 0 0 0 0 0 0 0 0 0 0 0 0 0 0 0 0 0 127 0" result="hardAlpha"/>
<feOffset/>
<feGaussianBlur stdDeviation="12.5"/>
<feComposite in2="hardAlpha" operator="out"/>
<feColorMatrix type="matrix" values="0 0 0 0 0.184233 0 0 0 0 0.223383 0 0 0 0 0.404167 0 0 0 0.15 0"/>
<feBlend mode="normal" in2="BackgroundImageFix" result="effect1_dropShadow_1_58742"/>
<feBlend mode="normal" in="SourceGraphic" in2="effect1_dropShadow_1_58742" result="shape"/>
</filter>
<clipPath id="clip0_1_58742">
<rect x="25" y="25" width="543.5" height="261.5" rx="6" fill="white"/>
</clipPath>
</defs>
</svg>
