<svg width="92" height="215" viewBox="0 0 92 215" fill="none" xmlns="http://www.w3.org/2000/svg">
<g opacity="0.64" filter="url(#filter0_f_1_58560)">
<path d="M57.6873 195.745C57.5296 197.107 52.2405 199.754 37.1394 198.006C22.0382 196.257 17.4941 192.471 17.6518 191.109C17.8095 189.748 26.8587 190.034 37.9142 191.314C48.9697 192.594 57.845 194.384 57.6873 195.745Z" fill="black"/>
</g>
<path d="M65.6192 154.905C65.4302 156.537 58.1196 195.082 58.0033 195.318C58.0033 195.318 56.9372 200.298 37.139 198.006C17.3407 195.713 17.441 190.621 17.441 190.621C17.3818 190.364 19.084 151.077 19.2623 149.537C19.4662 147.776 30.0883 146.864 42.8894 148.347C55.6905 149.829 65.8435 152.968 65.6192 154.905Z" fill="#A58465"/>
<path d="M65.6192 154.905C65.4302 156.537 58.1196 195.082 58.0033 195.318C58.0033 195.318 56.9372 200.298 37.139 198.006C17.3407 195.713 17.441 190.621 17.441 190.621C17.3818 190.364 19.084 151.077 19.2623 149.537C19.4662 147.776 30.0883 146.864 42.8894 148.347C55.6905 149.829 65.8435 152.968 65.6192 154.905Z" fill="url(#paint0_linear_1_58560)" fill-opacity="0.32"/>
<g filter="url(#filter1_i_1_58560)">
<ellipse cx="42.4408" cy="152.221" rx="23.3333" ry="3.9" transform="rotate(6.60532 42.4408 152.221)" fill="#6D5947"/>
</g>
<g filter="url(#filter2_i_1_58560)">
<path d="M50.4077 153.143C51.5903 153.28 52.6311 153.613 53.3419 154.03C57.0446 154.615 59.6901 155.387 59.6281 155.929C59.5685 156.443 56.3572 156.66 52.5721 156.466C51.8514 156.609 50.9633 156.643 50.0153 156.533C49.2162 156.44 48.4821 156.258 47.8703 156.022C46.5244 155.83 45.3685 155.603 44.4177 155.36C43.0639 155.526 41.1945 155.511 39.1504 155.275C37.148 155.043 35.3576 154.643 34.0821 154.184C33.705 154.148 33.3198 154.109 32.929 154.064C28.3954 153.539 24.783 152.571 24.8604 151.903C24.9385 151.234 28.6762 151.118 33.2094 151.642C33.6001 151.688 33.984 151.738 34.3593 151.789C35.706 151.634 37.5405 151.653 39.5428 151.885C41.9533 152.164 44.0562 152.689 45.3238 153.265C45.9307 153.28 46.5889 153.31 47.2865 153.355C48.078 153.096 49.1936 153.003 50.4077 153.143Z" fill="#51483A"/>
</g>
<path d="M42.7309 149.713C49.0798 150.448 54.7459 151.54 58.7662 152.7C60.7871 153.283 62.3297 153.866 63.3237 154.399C63.5249 154.506 63.6905 154.607 63.8269 154.697C63.6735 154.753 63.4895 154.815 63.2686 154.874C62.1793 155.165 60.5443 155.379 58.4437 155.485C54.2647 155.696 48.4989 155.464 42.15 154.729C35.8011 153.994 30.135 152.901 26.1148 151.741C24.094 151.158 22.5521 150.576 21.5581 150.044C21.3562 149.936 21.1908 149.834 21.0541 149.744C21.2076 149.688 21.3923 149.628 21.6131 149.569C22.7024 149.278 24.3367 149.062 26.4373 148.956C30.6162 148.746 36.3819 148.977 42.7309 149.713Z" stroke="#A38263" stroke-width="2.75"/>
<path d="M45.7774 14.303C45.9122 14.6755 47.3116 15.9083 48.0114 16.5247L47.9502 17.053C47.1987 16.3711 45.6648 14.9681 45.5406 14.811C45.3854 14.6145 45.0954 14.0456 45.3118 13.7137C45.5281 13.3818 45.6425 13.9305 45.7774 14.303Z" fill="#286114"/>
<path d="M41.1106 49.6326C41.2727 49.7691 43.2725 51.9637 43.9722 52.5801L43.3569 53.2834C42.6054 52.6016 41.0048 50.2378 40.8806 50.0806C40.7254 49.8842 40.2293 49.2216 40.6245 49.2194C40.6245 49.2194 40.9485 49.4961 41.1106 49.6326Z" fill="#1E3D12"/>
<path d="M14.5024 81.5292C15.048 81.7351 15.707 81.3712 15.9683 81.1636L16.0012 82.4166C15.6432 82.4346 14.6977 82.3013 13.7796 81.624C12.632 80.7772 13.2812 79.7817 13.4976 79.4498L13.4976 79.4498C13.7139 79.1179 14.6123 79.0435 13.9836 79.863C13.3548 80.6825 13.8204 81.2718 14.5024 81.5292Z" fill="#286114"/>
<path d="M17.8535 63.3575C18.8205 63.6123 19.2639 65.008 19.3647 65.674C20.0629 65.279 21.4635 64.4537 21.4798 64.3128C21.5002 64.1367 19.6502 63.2087 18.9682 62.9513C18.2862 62.6938 16.6447 63.0391 17.8535 63.3575Z" fill="#1E3D12"/>
<path d="M42.9549 32.5357C43.8187 32.03 45.0683 32.2654 45.6092 32.6646C45.8247 31.8903 46.0795 31.2267 45.9917 31.1156C45.8819 30.9767 43.9186 31.6327 43.2545 31.9343C42.5904 32.236 41.8751 33.1677 42.9549 32.5357Z" fill="#1E3D12"/>
<path d="M36.6476 83.9152C36.393 84.8851 35.1451 85.1094 34.553 85.1003L34.7614 86.3736C35.0541 86.4075 35.5102 85.7465 36.0721 85.8116C36.7745 85.8929 37.273 87.7352 37.3341 87.2069C37.3831 86.7843 36.8957 86.3829 36.7949 85.7168C36.7526 85.0576 36.9023 82.9453 36.6476 83.9152Z" fill="#286114"/>
<path d="M74.4921 93.6511L70.5633 90.6978C71.1648 90.1131 72.3786 89.1591 72.4212 90.0206C72.4638 90.8822 73.8195 92.7999 74.4921 93.6511Z" fill="#1E3D12"/>
<path d="M37.8631 65.7376L45.5532 69.4299C44.7295 70.8178 44.0048 73.0425 43.4985 71.4606C42.9923 69.8788 39.5306 66.9862 37.8631 65.7376Z" fill="#1E3D12"/>
<path d="M15.4219 108.947L20.7726 107.055C21.0359 108.096 21.7382 109.483 20.7581 108.979C19.7779 108.474 16.7922 108.747 15.4219 108.947Z" fill="#1E3D12"/>
<path d="M61.1383 111.336L56.4572 114.551C55.9342 113.614 54.8976 112.457 55.9748 112.69C57.052 112.923 59.8659 111.884 61.1383 111.336Z" fill="#1E3D12"/>
<path d="M83.9267 78.5006L79.0505 77.9137C79.2801 77.106 79.856 75.6715 80.3224 76.396C80.7889 77.1205 82.9197 78.1009 83.9267 78.5006Z" fill="#1E3D12"/>
<path d="M69.7041 41.5189L64.8278 40.932C65.0574 40.1243 65.6333 38.6898 66.0998 39.4143C66.5662 40.1388 68.697 41.1192 69.7041 41.5189Z" fill="#1E3D12"/>
<path d="M57.9329 4.11116L58.6266 8.98665C57.7892 8.97381 56.2588 8.78818 56.8362 8.14839C57.4136 7.50859 57.8079 5.19032 57.9329 4.11116Z" fill="#1E3D12"/>
<path d="M69.8171 47.9599C69.6619 47.7635 69.1759 47.3502 70.2907 46.9439C71.1824 46.6189 71.6154 48.8224 71.7203 49.9648L71.1731 50.0799C71.0723 49.4139 70.8314 48.113 70.6747 48.2376C70.4787 48.3934 69.9723 48.1563 69.8171 47.9599Z" fill="#286114"/>
<g filter="url(#filter3_ii_1_58560)">
<path d="M25.9513 119.438C27.4014 122.283 33.3727 130.648 36.4643 133.148C42.174 139.163 41.4434 110.347 41.1283 109.775C40.393 108.44 37.1825 102.358 36.7248 100.163C36.2671 97.9689 35.4209 91.4465 35.0527 86.9424C34.6845 82.4384 34.6267 78.3271 33.1925 72.272C31.7583 66.2168 28.6667 63.7173 27.6335 63.4192C26.6004 63.1211 24.2032 62.3082 20.9938 63.8996C17.7844 65.4909 17.4299 70.0898 16.7932 72.5145C16.1565 74.9391 15.794 81.1432 16.0886 84.7464C16.3831 88.3497 17.0866 96.1048 18.292 101.063C19.4974 106.021 24.5013 116.594 25.9513 119.438Z" fill="url(#paint1_linear_1_58560)"/>
</g>
<g filter="url(#filter4_f_1_58560)">
<path d="M28.4525 117.051C15.2931 101.608 18.7642 74.7058 19.0168 70.9874C19.2452 67.6255 22.5224 72.6674 22.2979 76.0296C21.3009 90.9596 23.8565 101.384 27.1246 108.082C30.4164 114.829 37.9403 126.85 32.5895 121.585C31.5086 120.521 30.1473 119.04 28.4525 117.051Z" fill="url(#paint2_linear_1_58560)"/>
</g>
<g opacity="0.8" filter="url(#filter5_f_1_58560)">
<path d="M33.2611 115.467C20.1017 100.023 23.5728 73.1213 23.8254 69.4029C24.0538 66.041 27.331 71.083 27.1065 74.4451C26.1095 89.3752 28.6651 99.7993 31.9332 106.497C35.225 113.244 42.7489 125.266 37.3981 120C36.3172 118.937 34.9559 117.456 33.2611 115.467Z" fill="url(#paint3_linear_1_58560)"/>
</g>
<g opacity="0.4" filter="url(#filter6_f_1_58560)">
<path d="M36.2309 108.48C26.3866 96.8961 28.9901 76.7121 29.18 73.9224C29.3515 71.4036 31.8035 75.1792 31.6347 77.6982C31.0052 87.0963 32.2476 94.1146 34.1072 99.099C36.7319 106.134 42.3389 115.404 37.3599 109.783C37.0076 109.385 36.6317 108.951 36.2309 108.48Z" fill="url(#paint4_linear_1_58560)"/>
</g>
<path d="M14.639 88.0356C14.639 88.0356 17.1868 88.0168 17.9375 88.4175C18.6881 88.8182 17.2327 90.3679 16.7662 89.6434C16.2997 88.9189 15.6461 88.4353 14.639 88.0356Z" fill="#1E3D12"/>
<mask id="mask0_1_58560" style="mask-type:alpha" maskUnits="userSpaceOnUse" x="15" y="62" width="27" height="72">
<path d="M25.9513 119.438C27.4014 122.283 33.3727 130.648 36.4643 133.148C42.174 139.163 41.4434 110.347 41.1283 109.775C40.393 108.44 37.1825 102.358 36.7248 100.163C36.2671 97.9689 35.4209 91.4465 35.0527 86.9424C34.6845 82.4384 34.6267 78.3271 33.1925 72.272C31.7583 66.2168 28.6667 63.7173 27.6335 63.4192C26.6004 63.1211 24.2032 62.3082 20.9938 63.8996C17.7844 65.4909 17.4299 70.0898 16.7932 72.5145C16.1565 74.9391 15.794 81.1432 16.0886 84.7464C16.3831 88.3497 17.0866 96.1048 18.292 101.063C19.4974 106.021 24.5013 116.594 25.9513 119.438Z" fill="url(#paint5_linear_1_58560)"/>
</mask>
<g mask="url(#mask0_1_58560)">
<g opacity="0.32" filter="url(#filter7_f_1_58560)">
<path d="M32.5339 127.478C32.0116 123.921 30.8575 87.4207 33.562 87.0196C36.2665 86.6186 41.8054 122.469 42.3277 126.026C42.85 129.583 41.081 132.791 38.3766 133.192C35.6721 133.594 33.0562 131.035 32.5339 127.478Z" fill="black"/>
</g>
</g>
<path d="M57.2841 121.668C57.4801 121.512 57.8925 121.025 58.2969 122.142C58.6205 123.037 56.4228 123.472 55.2835 123.578L55.1691 123.029C55.8333 122.928 57.1307 122.686 57.0066 122.528C56.8514 122.332 57.0881 121.824 57.2841 121.668Z" fill="#286114"/>
<path d="M34.158 113.116C34.158 113.116 36.4274 113.83 36.9261 114.096C37.4248 114.362 36.391 115.586 36.081 115.104C35.7711 114.623 34.8271 113.381 34.158 113.116Z" fill="#1E3D12"/>
<path d="M30.56 138.029C30.56 138.029 32.5478 140.643 33.2831 141.072C34.0183 141.5 34.7601 139.204 33.9 139.189C33.0399 139.173 31.4294 138.677 30.56 138.029Z" fill="#1E3D12"/>
<g filter="url(#filter8_i_1_58560)">
<path d="M35.6857 116.818C34.7395 124.989 32.5703 146.795 32.2406 154.252C32.2406 154.252 34.7472 155.042 42.2088 155.763C49.6703 156.484 52.1032 156.374 52.1032 156.374C55.5804 124.297 63.8578 49.9466 64.9091 45.7854C66.2232 40.5838 68.532 23.7192 67.8251 20.6036C67.1182 17.488 63.1192 8.9943 57.1286 8.47905C51.138 7.96381 49.4318 13.4769 47.9501 17.0529C46.4683 20.6289 45.494 32.1158 44.7599 38.4553L39.4581 84.2402L35.6857 116.818Z" fill="#51A234"/>
<path d="M35.6857 116.818C34.7395 124.989 32.5703 146.795 32.2406 154.252C32.2406 154.252 34.7472 155.042 42.2088 155.763C49.6703 156.484 52.1032 156.374 52.1032 156.374C55.5804 124.297 63.8578 49.9466 64.9091 45.7854C66.2232 40.5838 68.532 23.7192 67.8251 20.6036C67.1182 17.488 63.1192 8.9943 57.1286 8.47905C51.138 7.96381 49.4318 13.4769 47.9501 17.0529C46.4683 20.6289 45.494 32.1158 44.7599 38.4553L39.4581 84.2402L35.6857 116.818Z" fill="url(#paint6_linear_1_58560)" fill-opacity="0.24"/>
</g>
<mask id="mask1_1_58560" style="mask-type:alpha" maskUnits="userSpaceOnUse" x="32" y="8" width="36" height="149">
<path d="M35.6857 116.818C34.7395 124.989 32.5703 146.795 32.2406 154.252C32.2406 154.252 34.7472 155.042 42.2088 155.764C49.6703 156.485 52.1032 156.374 52.1032 156.374C55.5804 124.297 63.8578 49.9469 64.9091 45.7857C66.2232 40.5842 68.532 23.7196 67.8251 20.6039C67.1182 17.4883 63.1192 8.99464 57.1286 8.4794C51.138 7.96416 49.4318 13.4772 47.9501 17.0532C46.4683 20.6293 45.494 32.1162 44.7599 38.4556L39.4581 84.2406L35.6857 116.818Z" fill="#51A234"/>
<path d="M35.6857 116.818C34.7395 124.989 32.5703 146.795 32.2406 154.252C32.2406 154.252 34.7472 155.042 42.2088 155.764C49.6703 156.485 52.1032 156.374 52.1032 156.374C55.5804 124.297 63.8578 49.9469 64.9091 45.7857C66.2232 40.5842 68.532 23.7196 67.8251 20.6039C67.1182 17.4883 63.1192 8.99464 57.1286 8.4794C51.138 7.96416 49.4318 13.4772 47.9501 17.0532C46.4683 20.6293 45.494 32.1162 44.7599 38.4556L39.4581 84.2406L35.6857 116.818Z" fill="url(#paint7_linear_1_58560)" fill-opacity="0.24"/>
</mask>
<g mask="url(#mask1_1_58560)">
<g filter="url(#filter9_f_1_58560)">
<rect x="50.209" y="12.1395" width="4.94949" height="147.136" rx="2.47475" transform="rotate(6.60532 50.209 12.1395)" fill="url(#paint8_linear_1_58560)"/>
</g>
<g opacity="0.8" filter="url(#filter10_f_1_58560)">
<rect x="57.666" y="12.2891" width="2.12121" height="147.845" rx="1.06061" transform="rotate(6.60532 57.666 12.2891)" fill="url(#paint9_linear_1_58560)"/>
</g>
<g opacity="0.4" filter="url(#filter11_f_1_58560)">
<path d="M62.0209 23.8537C62.1108 23.0779 62.8125 22.5218 63.5883 22.6116C64.3642 22.7015 64.9203 23.4032 64.8304 24.1791L48.4755 165.416C48.3856 166.192 47.6839 166.748 46.908 166.658C46.1322 166.568 45.5761 165.867 45.666 165.091L62.0209 23.8537Z" fill="url(#paint10_linear_1_58560)"/>
</g>
<g opacity="0.24" filter="url(#filter12_f_1_58560)">
<path d="M60.1476 91.511C59.8062 94.4594 51.0477 123.594 47.5565 123.19C44.0652 122.785 47.1634 92.9954 47.5049 90.047C47.8463 87.0986 50.9532 85.0362 54.4444 85.4405C57.9357 85.8448 60.4891 88.5626 60.1476 91.511Z" fill="black"/>
</g>
<g opacity="0.24" filter="url(#filter13_f_1_58560)">
<path d="M29.0726 145.162C31.8241 146.254 57.6155 162.26 56.3203 165.537C55.025 168.815 27.1337 158.122 24.3823 157.03C21.6309 155.938 20.4504 152.396 21.7456 149.119C23.0408 145.842 26.3212 144.07 29.0726 145.162Z" fill="black"/>
</g>
</g>
<path d="M40.6952 106.334C40.6952 106.334 40.7561 108.888 41.1789 109.628C41.6017 110.368 43.3887 108.751 42.652 108.306C41.9153 107.861 41.125 107.331 40.6952 106.334Z" fill="#1E3D12"/>
<path d="M34.1799 143.693C34.1799 143.693 36.5761 144.426 37.3984 144.208C38.2208 143.989 37.5909 142.179 36.9712 142.777C36.3574 143.37 35.2725 143.531 34.2104 143.689L34.1799 143.693Z" fill="#1E3D12"/>
<path d="M55.7588 134.133C55.7588 134.133 54.0877 136.121 53.117 136.861C52.1463 137.601 51.1616 135.702 52.3818 135.527L52.4008 135.524C53.6128 135.35 54.6413 135.202 55.7588 134.133Z" fill="#1E3D12"/>
<path d="M63.8757 62.3982C63.8757 62.3982 60.397 60.1683 59.9469 59.4448C59.4969 58.7213 61.7622 57.9061 61.8048 58.7677C61.8474 59.6292 63.2032 61.547 63.8757 62.3982Z" fill="#1E3D12"/>
<g filter="url(#filter14_ii_1_58560)">
<path d="M64.5292 75.1869C61.9653 78.8875 54.0453 83.2527 51.9861 85.1558C47.9658 89.1398 48.4753 92.4229 48.549 93.3237C48.6226 94.2245 49.3624 98.5931 54.5566 98.3023C59.7508 98.0115 69.2974 93.9417 74.6378 87.7788C79.9781 81.6158 82.4398 77.261 81.8586 68.4492C81.2775 59.6375 77.283 54.1782 75.731 52.2139C74.1789 50.2496 69.7358 48.6644 67.3024 51.2379C64.869 53.8114 66.932 59.0471 67.145 63.3548C67.3579 67.6624 67.7341 70.5613 64.5292 75.1869Z" fill="url(#paint11_linear_1_58560)"/>
</g>
<g opacity="0.8" filter="url(#filter15_f_1_58560)">
<path d="M57.4909 90.0141C71.9613 82.2071 73.2749 70.2598 73.0121 62.6883C72.8619 58.3603 68.5902 52.3168 69.082 56.6194C71.6456 79.045 59.0444 82.3446 55.4434 86.8055C52.3071 90.6907 48.2601 95.057 52.4762 92.7685C54.1474 91.8613 55.8173 90.917 57.4909 90.0141Z" fill="url(#paint12_linear_1_58560)"/>
</g>
<g opacity="0.4" filter="url(#filter16_f_1_58560)">
<path d="M78.0177 65.1407C78.3722 62.9889 75.354 63.6683 75.344 65.4837C75.2449 83.4843 67.4221 84.2317 64.7619 87.4913C62.6425 90.0881 59.9598 92.9786 61.9035 92.1748C63.6537 91.451 65.2794 90.4152 66.9302 89.4868C81.3287 81.3895 77.5977 67.6899 78.0177 65.1407Z" fill="url(#paint13_linear_1_58560)"/>
</g>
<path d="M79.2427 52.6203C79.2427 52.6203 79.0544 56.7575 78.6543 57.5105C78.2542 58.2636 76.4189 56.7043 77.1416 56.236C77.8644 55.7678 78.8435 53.6304 79.2427 52.6203Z" fill="#1E3D12"/>
<path d="M62.5904 8.93316C62.5904 8.93316 62.402 13.0704 62.002 13.8234C61.6019 14.5764 59.7665 13.0171 60.4893 12.5489C61.212 12.0806 62.1912 9.9433 62.5904 8.93316Z" fill="#1E3D12"/>
<path d="M53.7529 81.7914C53.7529 81.7914 55.1655 83.5822 55.2701 84.0407C55.3747 84.4993 54.0477 84.5152 54.1802 84.0583C54.3127 83.6014 53.9506 82.3566 53.7529 81.7914Z" fill="#1E3D12"/>
<path d="M63.5654 71.2154C63.5654 71.2154 66.1132 71.1966 66.8638 71.5973C67.6145 71.998 66.0584 73.8395 65.5919 73.1151C65.1254 72.3906 64.5725 71.6151 63.5654 71.2154Z" fill="#1E3D12"/>
<path d="M64.6037 30.9381C64.6037 30.9381 63.9608 33.4107 63.38 34.0343C62.7993 34.658 61.4292 32.6752 62.2481 32.4104C63.0669 32.1457 63.9574 31.8103 64.6037 30.9381Z" fill="#1E3D12"/>
<path d="M49.4905 20.6552C49.4905 20.6552 50.9931 22.4158 51.7283 22.8443C52.4635 23.2728 53.029 21.3968 52.1689 21.381C51.3088 21.3652 50.3599 21.3027 49.4905 20.6552Z" fill="#1E3D12"/>
<path d="M31.9221 92.4689C31.9221 92.4689 31.9392 95.0237 31.5391 95.7768C31.139 96.5298 29.3036 94.9705 30.0264 94.5022C30.7491 94.034 31.5229 93.479 31.9221 92.4689Z" fill="#1E3D12"/>
<path d="M32.3265 65.9256C32.3265 65.9256 31.613 68.2018 31.3472 68.7021C31.0814 69.2024 29.862 68.1664 30.3422 67.8553C30.8224 67.5442 32.0613 66.5967 32.3265 65.9256Z" fill="#1E3D12"/>
<path d="M63.4822 152.94C64.9173 153.625 65.6901 154.296 65.62 154.905C65.3722 157.044 54.7933 157.577 41.9922 156.095C29.1913 154.613 19.015 151.676 19.2627 149.537C19.3334 148.928 20.2387 148.451 21.792 148.112C20.5151 148.486 19.8812 149.184 20.3128 149.654C20.3113 149.655 20.31 149.657 20.3085 149.658C20.3181 149.668 20.3283 149.68 20.3399 149.692C20.5195 149.877 20.8483 150.117 21.3683 150.396C22.3992 150.948 23.9726 151.539 26.0039 152.125C30.0515 153.293 35.7402 154.39 42.1043 155.127C48.4686 155.864 54.2582 156.096 58.4657 155.884C60.5772 155.778 62.2441 155.562 63.3737 155.26C63.9436 155.108 64.3187 154.949 64.5358 154.81C64.5498 154.801 64.5625 154.792 64.5742 154.783C64.573 154.782 64.572 154.781 64.5708 154.779C65.1 154.421 64.6414 153.596 63.4822 152.94Z" fill="#E2C2A4"/>
<defs>
<filter id="filter0_f_1_58560" x="1.64844" y="174.213" width="72.041" height="40.3715" filterUnits="userSpaceOnUse" color-interpolation-filters="sRGB">
<feFlood flood-opacity="0" result="BackgroundImageFix"/>
<feBlend mode="normal" in="SourceGraphic" in2="BackgroundImageFix" result="shape"/>
<feGaussianBlur stdDeviation="8" result="effect1_foregroundBlur_1_58560"/>
</filter>
<filter id="filter1_i_1_58560" x="19.2578" y="147.507" width="46.3652" height="14.9269" filterUnits="userSpaceOnUse" color-interpolation-filters="sRGB">
<feFlood flood-opacity="0" result="BackgroundImageFix"/>
<feBlend mode="normal" in="SourceGraphic" in2="BackgroundImageFix" result="shape"/>
<feColorMatrix in="SourceAlpha" type="matrix" values="0 0 0 0 0 0 0 0 0 0 0 0 0 0 0 0 0 0 127 0" result="hardAlpha"/>
<feOffset dy="5.5"/>
<feGaussianBlur stdDeviation="2.75"/>
<feComposite in2="hardAlpha" operator="arithmetic" k2="-1" k3="1"/>
<feColorMatrix type="matrix" values="0 0 0 0 0 0 0 0 0 0 0 0 0 0 0 0 0 0 0.25 0"/>
<feBlend mode="normal" in2="shape" result="effect1_innerShadow_1_58560"/>
</filter>
<filter id="filter2_i_1_58560" x="24.8594" y="148.564" width="34.7695" height="8.03398" filterUnits="userSpaceOnUse" color-interpolation-filters="sRGB">
<feFlood flood-opacity="0" result="BackgroundImageFix"/>
<feBlend mode="normal" in="SourceGraphic" in2="BackgroundImageFix" result="shape"/>
<feColorMatrix in="SourceAlpha" type="matrix" values="0 0 0 0 0 0 0 0 0 0 0 0 0 0 0 0 0 0 127 0" result="hardAlpha"/>
<feOffset dy="-2.75"/>
<feGaussianBlur stdDeviation="2.75"/>
<feComposite in2="hardAlpha" operator="arithmetic" k2="-1" k3="1"/>
<feColorMatrix type="matrix" values="0 0 0 0 0 0 0 0 0 0 0 0 0 0 0 0 0 0 0.32 0"/>
<feBlend mode="normal" in2="shape" result="effect1_innerShadow_1_58560"/>
</filter>
<filter id="filter3_ii_1_58560" x="7.98438" y="54.9456" width="41.3555" height="91.0276" filterUnits="userSpaceOnUse" color-interpolation-filters="sRGB">
<feFlood flood-opacity="0" result="BackgroundImageFix"/>
<feBlend mode="normal" in="SourceGraphic" in2="BackgroundImageFix" result="shape"/>
<feColorMatrix in="SourceAlpha" type="matrix" values="0 0 0 0 0 0 0 0 0 0 0 0 0 0 0 0 0 0 127 0" result="hardAlpha"/>
<feOffset dx="8" dy="-16"/>
<feGaussianBlur stdDeviation="4"/>
<feComposite in2="hardAlpha" operator="arithmetic" k2="-1" k3="1"/>
<feColorMatrix type="matrix" values="0 0 0 0 0 0 0 0 0 0 0 0 0 0 0 0 0 0 0.25 0"/>
<feBlend mode="normal" in2="shape" result="effect1_innerShadow_1_58560"/>
<feColorMatrix in="SourceAlpha" type="matrix" values="0 0 0 0 0 0 0 0 0 0 0 0 0 0 0 0 0 0 127 0" result="hardAlpha"/>
<feOffset dx="-8" dy="12"/>
<feGaussianBlur stdDeviation="8"/>
<feComposite in2="hardAlpha" operator="arithmetic" k2="-1" k3="1"/>
<feColorMatrix type="matrix" values="0 0 0 0 0.499306 0 0 0 0 0.833333 0 0 0 0 0.381944 0 0 0 1 0"/>
<feBlend mode="normal" in2="effect1_innerShadow_1_58560" result="effect2_innerShadow_1_58560"/>
</filter>
<filter id="filter4_f_1_58560" x="10.418" y="61.8786" width="32.0371" height="69.0037" filterUnits="userSpaceOnUse" color-interpolation-filters="sRGB">
<feFlood flood-opacity="0" result="BackgroundImageFix"/>
<feBlend mode="normal" in="SourceGraphic" in2="BackgroundImageFix" result="shape"/>
<feGaussianBlur stdDeviation="4" result="effect1_foregroundBlur_1_58560"/>
</filter>
<filter id="filter5_f_1_58560" x="15.2266" y="60.2941" width="32.0371" height="69.0037" filterUnits="userSpaceOnUse" color-interpolation-filters="sRGB">
<feFlood flood-opacity="0" result="BackgroundImageFix"/>
<feBlend mode="normal" in="SourceGraphic" in2="BackgroundImageFix" result="shape"/>
<feGaussianBlur stdDeviation="4" result="effect1_foregroundBlur_1_58560"/>
</filter>
<filter id="filter6_f_1_58560" x="20.7305" y="65.0914" width="26.6211" height="54.422" filterUnits="userSpaceOnUse" color-interpolation-filters="sRGB">
<feFlood flood-opacity="0" result="BackgroundImageFix"/>
<feBlend mode="normal" in="SourceGraphic" in2="BackgroundImageFix" result="shape"/>
<feGaussianBlur stdDeviation="4" result="effect1_foregroundBlur_1_58560"/>
</filter>
<filter id="filter7_f_1_58560" x="15.8379" y="71.0163" width="42.582" height="78.2175" filterUnits="userSpaceOnUse" color-interpolation-filters="sRGB">
<feFlood flood-opacity="0" result="BackgroundImageFix"/>
<feBlend mode="normal" in="SourceGraphic" in2="BackgroundImageFix" result="shape"/>
<feGaussianBlur stdDeviation="8" result="effect1_foregroundBlur_1_58560"/>
</filter>
<filter id="filter8_i_1_58560" x="24.2402" y="8.44538" width="43.7168" height="159.934" filterUnits="userSpaceOnUse" color-interpolation-filters="sRGB">
<feFlood flood-opacity="0" result="BackgroundImageFix"/>
<feBlend mode="normal" in="SourceGraphic" in2="BackgroundImageFix" result="shape"/>
<feColorMatrix in="SourceAlpha" type="matrix" values="0 0 0 0 0 0 0 0 0 0 0 0 0 0 0 0 0 0 127 0" result="hardAlpha"/>
<feOffset dx="-8" dy="12"/>
<feGaussianBlur stdDeviation="8"/>
<feComposite in2="hardAlpha" operator="arithmetic" k2="-1" k3="1"/>
<feColorMatrix type="matrix" values="0 0 0 0 0.499306 0 0 0 0 0.833333 0 0 0 0 0.381944 0 0 0 1 0"/>
<feBlend mode="normal" in2="shape" result="effect1_innerShadow_1_58560"/>
</filter>
<filter id="filter9_f_1_58560" x="25.5527" y="4.4075" width="37.3047" height="162.193" filterUnits="userSpaceOnUse" color-interpolation-filters="sRGB">
<feFlood flood-opacity="0" result="BackgroundImageFix"/>
<feBlend mode="normal" in="SourceGraphic" in2="BackgroundImageFix" result="shape"/>
<feGaussianBlur stdDeviation="4" result="effect1_foregroundBlur_1_58560"/>
</filter>
<filter id="filter10_f_1_58560" x="32.7734" y="4.40397" width="34.8848" height="162.878" filterUnits="userSpaceOnUse" color-interpolation-filters="sRGB">
<feFlood flood-opacity="0" result="BackgroundImageFix"/>
<feBlend mode="normal" in="SourceGraphic" in2="BackgroundImageFix" result="shape"/>
<feGaussianBlur stdDeviation="4" result="effect1_foregroundBlur_1_58560"/>
</filter>
<filter id="filter11_f_1_58560" x="37.6562" y="14.6021" width="35.1836" height="160.066" filterUnits="userSpaceOnUse" color-interpolation-filters="sRGB">
<feFlood flood-opacity="0" result="BackgroundImageFix"/>
<feBlend mode="normal" in="SourceGraphic" in2="BackgroundImageFix" result="shape"/>
<feGaussianBlur stdDeviation="4" result="effect1_foregroundBlur_1_58560"/>
</filter>
<filter id="filter12_f_1_58560" x="29.9121" y="69.3899" width="46.2656" height="69.8039" filterUnits="userSpaceOnUse" color-interpolation-filters="sRGB">
<feFlood flood-opacity="0" result="BackgroundImageFix"/>
<feBlend mode="normal" in="SourceGraphic" in2="BackgroundImageFix" result="shape"/>
<feGaussianBlur stdDeviation="8" result="effect1_foregroundBlur_1_58560"/>
</filter>
<filter id="filter13_f_1_58560" x="5.2207" y="128.84" width="67.1465" height="53.3193" filterUnits="userSpaceOnUse" color-interpolation-filters="sRGB">
<feFlood flood-opacity="0" result="BackgroundImageFix"/>
<feBlend mode="normal" in="SourceGraphic" in2="BackgroundImageFix" result="shape"/>
<feGaussianBlur stdDeviation="8" result="effect1_foregroundBlur_1_58560"/>
</filter>
<filter id="filter14_ii_1_58560" x="40.4883" y="41.8978" width="49.4531" height="66.4184" filterUnits="userSpaceOnUse" color-interpolation-filters="sRGB">
<feFlood flood-opacity="0" result="BackgroundImageFix"/>
<feBlend mode="normal" in="SourceGraphic" in2="BackgroundImageFix" result="shape"/>
<feColorMatrix in="SourceAlpha" type="matrix" values="0 0 0 0 0 0 0 0 0 0 0 0 0 0 0 0 0 0 127 0" result="hardAlpha"/>
<feOffset dx="8" dy="-8"/>
<feGaussianBlur stdDeviation="4"/>
<feComposite in2="hardAlpha" operator="arithmetic" k2="-1" k3="1"/>
<feColorMatrix type="matrix" values="0 0 0 0 0 0 0 0 0 0 0 0 0 0 0 0 0 0 0.16 0"/>
<feBlend mode="normal" in2="shape" result="effect1_innerShadow_1_58560"/>
<feColorMatrix in="SourceAlpha" type="matrix" values="0 0 0 0 0 0 0 0 0 0 0 0 0 0 0 0 0 0 127 0" result="hardAlpha"/>
<feOffset dx="-8" dy="10"/>
<feGaussianBlur stdDeviation="8"/>
<feComposite in2="hardAlpha" operator="arithmetic" k2="-1" k3="1"/>
<feColorMatrix type="matrix" values="0 0 0 0 0.499306 0 0 0 0 0.833333 0 0 0 0 0.381944 0 0 0 1 0"/>
<feBlend mode="normal" in2="effect1_innerShadow_1_58560" result="effect2_innerShadow_1_58560"/>
</filter>
<filter id="filter15_f_1_58560" x="42.6641" y="47.1425" width="38.377" height="54.2587" filterUnits="userSpaceOnUse" color-interpolation-filters="sRGB">
<feFlood flood-opacity="0" result="BackgroundImageFix"/>
<feBlend mode="normal" in="SourceGraphic" in2="BackgroundImageFix" result="shape"/>
<feGaussianBlur stdDeviation="4" result="effect1_foregroundBlur_1_58560"/>
</filter>
<filter id="filter16_f_1_58560" x="53.2324" y="55.8002" width="32.9277" height="44.5114" filterUnits="userSpaceOnUse" color-interpolation-filters="sRGB">
<feFlood flood-opacity="0" result="BackgroundImageFix"/>
<feBlend mode="normal" in="SourceGraphic" in2="BackgroundImageFix" result="shape"/>
<feGaussianBlur stdDeviation="4" result="effect1_foregroundBlur_1_58560"/>
</filter>
<linearGradient id="paint0_linear_1_58560" x1="17.5086" y1="164.681" x2="62.1754" y2="169.853" gradientUnits="userSpaceOnUse">
<stop/>
<stop offset="1" stop-opacity="0"/>
</linearGradient>
<linearGradient id="paint1_linear_1_58560" x1="37.6345" y1="66.1834" x2="15.6403" y2="119.855" gradientUnits="userSpaceOnUse">
<stop stop-color="#51A234"/>
<stop offset="1" stop-color="#43852C"/>
</linearGradient>
<linearGradient id="paint2_linear_1_58560" x1="30.7226" y1="70.4754" x2="24.6889" y2="122.581" gradientUnits="userSpaceOnUse">
<stop stop-color="#3E782A"/>
<stop offset="1" stop-color="#2F5B20"/>
</linearGradient>
<linearGradient id="paint3_linear_1_58560" x1="35.5312" y1="68.8909" x2="29.4975" y2="120.996" gradientUnits="userSpaceOnUse">
<stop stop-color="#3E782A"/>
<stop offset="1" stop-color="#2F5B20"/>
</linearGradient>
<linearGradient id="paint4_linear_1_58560" x1="37.9401" y1="73.5356" x2="33.4131" y2="112.629" gradientUnits="userSpaceOnUse">
<stop stop-color="#3E782A"/>
<stop offset="1" stop-color="#2F5B20"/>
</linearGradient>
<linearGradient id="paint5_linear_1_58560" x1="37.6345" y1="66.1834" x2="15.6403" y2="119.855" gradientUnits="userSpaceOnUse">
<stop stop-color="#51A234"/>
<stop offset="1" stop-color="#43852C"/>
</linearGradient>
<linearGradient id="paint6_linear_1_58560" x1="39.9581" y1="79.4305" x2="66.4254" y2="78.8177" gradientUnits="userSpaceOnUse">
<stop/>
<stop offset="1" stop-opacity="0"/>
</linearGradient>
<linearGradient id="paint7_linear_1_58560" x1="39.9581" y1="79.4309" x2="66.4254" y2="78.8181" gradientUnits="userSpaceOnUse">
<stop/>
<stop offset="1" stop-opacity="0"/>
</linearGradient>
<linearGradient id="paint8_linear_1_58560" x1="52.6837" y1="12.1395" x2="52.6837" y2="159.276" gradientUnits="userSpaceOnUse">
<stop stop-color="#3E782A"/>
<stop offset="1" stop-color="#2F5B20"/>
</linearGradient>
<linearGradient id="paint9_linear_1_58560" x1="58.7266" y1="12.2891" x2="58.7266" y2="160.135" gradientUnits="userSpaceOnUse">
<stop stop-color="#3E782A"/>
<stop offset="1" stop-color="#2F5B20"/>
</linearGradient>
<linearGradient id="paint10_linear_1_58560" x1="63.5883" y1="22.6116" x2="46.908" y2="166.658" gradientUnits="userSpaceOnUse">
<stop stop-color="#3E782A"/>
<stop offset="1" stop-color="#2F5B20"/>
</linearGradient>
<linearGradient id="paint11_linear_1_58560" x1="88.1336" y1="58.8254" x2="51.6746" y2="93.0589" gradientUnits="userSpaceOnUse">
<stop stop-color="#51A234"/>
<stop offset="1" stop-color="#43852C"/>
</linearGradient>
<linearGradient id="paint12_linear_1_58560" x1="70.382" y1="46.241" x2="64.3483" y2="98.3463" gradientUnits="userSpaceOnUse">
<stop stop-color="#3E782A"/>
<stop offset="1" stop-color="#2F5B20"/>
</linearGradient>
<linearGradient id="paint13_linear_1_58560" x1="75.7758" y1="57.8328" x2="71.3628" y2="95.9423" gradientUnits="userSpaceOnUse">
<stop stop-color="#3E782A"/>
<stop offset="1" stop-color="#2F5B20"/>
</linearGradient>
</defs>
</svg>
