<svg width="26" height="25" viewBox="0 0 26 25" fill="none" xmlns="http://www.w3.org/2000/svg">
<path d="M20.7825 1C19.7331 1 18.7268 1.39509 17.9848 2.09835C17.2428 2.80161 16.826 3.75544 16.826 4.75V19.75C16.826 20.7446 17.2428 21.6984 17.9848 22.4017C18.7268 23.1049 19.7331 23.5 20.7825 23.5C21.8318 23.5 22.8381 23.1049 23.5801 22.4017C24.3221 21.6984 24.7389 20.7446 24.7389 19.75C24.7389 18.7554 24.3221 17.8016 23.5801 17.0983C22.8381 16.3951 21.8318 16 20.7825 16H4.95649C3.90716 16 2.90082 16.3951 2.15883 17.0983C1.41684 17.8016 1 18.7554 1 19.75C1 20.7446 1.41684 21.6984 2.15883 22.4017C2.90082 23.1049 3.90716 23.5 4.95649 23.5C6.00582 23.5 7.01217 23.1049 7.75415 22.4017C8.49614 21.6984 8.91298 20.7446 8.91298 19.75V4.75C8.91298 3.75544 8.49614 2.80161 7.75415 2.09835C7.01217 1.39509 6.00582 1 4.95649 1C3.90716 1 2.90082 1.39509 2.15883 2.09835C1.41684 2.80161 1 3.75544 1 4.75C1 5.74456 1.41684 6.69839 2.15883 7.40165C2.90082 8.10491 3.90716 8.5 4.95649 8.5H20.7825C21.8318 8.5 22.8381 8.10491 23.5801 7.40165C24.3221 6.69839 24.7389 5.74456 24.7389 4.75C24.7389 3.75544 24.3221 2.80161 23.5801 2.09835C22.8381 1.39509 21.8318 1 20.7825 1Z" stroke="#54BD95" stroke-width="2" stroke-linecap="round" stroke-linejoin="round"/>
</svg>
