<svg width="32" height="30" viewBox="0 0 32 30" fill="none" xmlns="http://www.w3.org/2000/svg">
<path d="M27.9751 19.8621C27.136 21.7427 25.8235 23.3999 24.1525 24.6887C22.4815 25.9776 20.5027 26.8589 18.3892 27.2556C16.2758 27.6523 14.0919 27.5523 12.0287 26.9644C9.9654 26.3764 8.08551 25.3184 6.55337 23.8829C5.02122 22.4474 3.88345 20.6781 3.23955 18.7295C2.59564 16.781 2.4652 14.7127 2.85963 12.7054C3.25406 10.6981 4.16134 8.81289 5.50216 7.21465C6.84298 5.6164 8.57652 4.35376 10.5512 3.53711" stroke="#54BD95" stroke-width="2" stroke-linecap="round" stroke-linejoin="round"/>
<path d="M29.018 15C29.018 13.3585 28.6769 11.733 28.014 10.2165C27.3512 8.69989 26.3796 7.3219 25.1548 6.16117C23.93 5.00043 22.476 4.07969 20.8757 3.45151C19.2754 2.82332 17.5603 2.5 15.8281 2.5V15H29.018Z" stroke="#54BD95" stroke-width="2" stroke-linecap="round" stroke-linejoin="round"/>
</svg>
